<?xml version="1.0" encoding="utf-8"?>
<svg version="1.1" xmlns:xlink="http://www.w3.org/1999/xlink" width="16px" height="16px" xmlns="http://www.w3.org/2000/svg">
  <g transform="matrix(1 0 0 1 -1133 -21 )">
    <path d="M 0.842105269736842 1  L 11.5848420986842 1  L 5.29768421052632 7.12926315131579  L 5.30442104605263 10.7056842171053  L 8.87326316447368 10.6997894736842  L 15 4.41515790131579  L 15 15.1578947302632  C 15.1578947368421 15.622976628491  14.7808713653331 16  14.3157894671053 16  L 0.842105269736842 16  C 0.377023371509037 16  0 15.622976628491  0 15.1578947302632  L 0 1.68421053289474  C 0 1.21912863466693  0.377023371509037 0.842105263157894  0.842105269736842 1  Z M 6.98442104605263 7.82652630921052  L 14.7242105328947 0.0842105263157891  L 15.9157894736842 1.27663157894737  L 8.17515789473684 9.01726315789473  L 6.98610526973684 9.01978947368421  L 6.98442104605263 7.82652630921052  Z " fill-rule="nonzero" fill="#006eff" stroke="none" transform="matrix(1 0 0 1 1133 21 )" />
  </g>
</svg>