<?xml version="1.0" encoding="utf-8"?>
<svg version="1.1" xmlns:xlink="http://www.w3.org/1999/xlink" width="96px" height="96px" xmlns="http://www.w3.org/2000/svg">
  <defs>
    <filter x="1148px" y="-14px" width="96px" height="96px" filterUnits="userSpaceOnUse" id="filter282">
      <feOffset dx="0" dy="5" in="SourceAlpha" result="shadowOffsetInner" />
      <feGaussianBlur stdDeviation="20" in="shadowOffsetInner" result="shadowGaussian" />
      <feComposite in2="shadowGaussian" operator="atop" in="SourceAlpha" result="shadowComposite" />
      <feColorMatrix type="matrix" values="0 0 0 0 0  0 0 0 0 0.431372549019608  0 0 0 0 1  0 0 0 0.603921568627451 0  " in="shadowComposite" />
    </filter>
    <g id="widget283">
      <path d="M 11.999999990625 0  L 11.999999990625 1.60000001125  L 16 1.60000001125  L 16 3.20000000375  L 14.39999998875 3.20000000375  L 14.39999998875 15.199999994375  C 14.39999998875 15.6418277900239  14.0418277975239 15.9999999896447  13.600000001875 16  L 2.399999998125 16  C 1.95817220247609 15.9999999896447  1.60000001125 15.6418277900239  1.60000001125 15.199999994375  L 1.60000001125 3.20000000375  L 0 3.20000000375  L 0 1.60000001125  L 4.000000009375 1.60000001125  L 4.000000009375 0  L 11.999999990625 0  Z M 7.199999994375 5.600000001875  L 5.600000001875 5.600000001875  L 5.600000001875 11.999999990625  L 7.199999994375 11.999999990625  L 7.199999994375 5.600000001875  Z M 10.399999998125 5.600000001875  L 8.800000005625 5.600000001875  L 8.800000005625 11.999999990625  L 10.399999998125 11.999999990625  L 10.399999998125 5.600000001875  Z " fill-rule="nonzero" fill="#006eff" stroke="none" transform="matrix(1 0 0 1 1188 21 )" />
    </g>
  </defs>
  <g transform="matrix(1 0 0 1 -1148 14 )">
    <use xlink:href="#widget283" filter="url(#filter282)" />
    <use xlink:href="#widget283" />
  </g>
</svg>